<mxfile host="app.diagrams.net" modified="2021-08-05T13:47:23.500Z" agent="5.0 (Macintosh; Intel Mac OS X 10_15_7) AppleWebKit/537.36 (KHTML, like Gecko) Chrome/92.0.4515.131 Safari/537.36" etag="seNRQ9pRTMqyC6zxeTGo" version="14.8.6" type="github">
  <diagram id="9dhxcd5zLiCDGKyovFnX" name="Page-1">
    <mxGraphModel dx="1722" dy="941" grid="1" gridSize="10" guides="1" tooltips="1" connect="1" arrows="1" fold="1" page="1" pageScale="1" pageWidth="827" pageHeight="1169" math="0" shadow="0">
      <root>
        <mxCell id="0" />
        <mxCell id="1" parent="0" />
        <mxCell id="9xFqVU6_xqyPHwNH9stn-2" value="" style="ellipse;whiteSpace=wrap;html=1;sketch=0;shadow=0;fillColor=none;" vertex="1" parent="1">
          <mxGeometry x="410" y="510" width="280" height="190" as="geometry" />
        </mxCell>
        <mxCell id="9xFqVU6_xqyPHwNH9stn-4" value="" style="ellipse;whiteSpace=wrap;html=1;shadow=0;sketch=0;fillColor=none;" vertex="1" parent="1">
          <mxGeometry x="160" y="448.75" width="400" height="312.5" as="geometry" />
        </mxCell>
        <mxCell id="9xFqVU6_xqyPHwNH9stn-5" value="白" style="text;html=1;strokeColor=none;fillColor=none;align=center;verticalAlign=middle;whiteSpace=wrap;rounded=0;shadow=0;sketch=0;" vertex="1" parent="1">
          <mxGeometry x="270" y="595" width="40" height="20" as="geometry" />
        </mxCell>
        <mxCell id="9xFqVU6_xqyPHwNH9stn-13" value="" style="edgeStyle=orthogonalEdgeStyle;rounded=0;orthogonalLoop=1;jettySize=auto;html=1;" edge="1" parent="1" source="9xFqVU6_xqyPHwNH9stn-6" target="9xFqVU6_xqyPHwNH9stn-12">
          <mxGeometry relative="1" as="geometry" />
        </mxCell>
        <mxCell id="9xFqVU6_xqyPHwNH9stn-6" value="黑" style="text;html=1;strokeColor=none;fillColor=none;align=center;verticalAlign=middle;whiteSpace=wrap;rounded=0;shadow=0;sketch=0;" vertex="1" parent="1">
          <mxGeometry x="640" y="595" width="40" height="20" as="geometry" />
        </mxCell>
        <mxCell id="9xFqVU6_xqyPHwNH9stn-7" value="灰" style="text;html=1;strokeColor=none;fillColor=none;align=center;verticalAlign=middle;whiteSpace=wrap;rounded=0;shadow=0;sketch=0;" vertex="1" parent="1">
          <mxGeometry x="470" y="595" width="40" height="20" as="geometry" />
        </mxCell>
        <mxCell id="9xFqVU6_xqyPHwNH9stn-9" style="edgeStyle=orthogonalEdgeStyle;rounded=0;orthogonalLoop=1;jettySize=auto;html=1;entryX=0.5;entryY=0;entryDx=0;entryDy=0;" edge="1" parent="1" source="9xFqVU6_xqyPHwNH9stn-8" target="9xFqVU6_xqyPHwNH9stn-5">
          <mxGeometry relative="1" as="geometry" />
        </mxCell>
        <mxCell id="9xFqVU6_xqyPHwNH9stn-8" value="绝大多数词和政治无关，不是我们关心的内容" style="text;html=1;strokeColor=none;fillColor=none;align=center;verticalAlign=middle;whiteSpace=wrap;rounded=0;shadow=0;sketch=0;" vertex="1" parent="1">
          <mxGeometry x="120" y="400" width="140" height="80" as="geometry" />
        </mxCell>
        <mxCell id="9xFqVU6_xqyPHwNH9stn-11" style="edgeStyle=orthogonalEdgeStyle;rounded=0;orthogonalLoop=1;jettySize=auto;html=1;entryX=0.75;entryY=1;entryDx=0;entryDy=0;" edge="1" parent="1" source="9xFqVU6_xqyPHwNH9stn-10" target="9xFqVU6_xqyPHwNH9stn-7">
          <mxGeometry relative="1" as="geometry" />
        </mxCell>
        <mxCell id="9xFqVU6_xqyPHwNH9stn-10" value="涉政内容只占了词汇的一部分语义，需要和其他词汇或者业务场景组合综合判断才能判定涉政，是误召回的主要原因，是我们重组词包的重心" style="text;html=1;strokeColor=none;fillColor=none;align=center;verticalAlign=middle;whiteSpace=wrap;rounded=0;shadow=0;sketch=0;" vertex="1" parent="1">
          <mxGeometry x="370" y="770" width="260" height="50" as="geometry" />
        </mxCell>
        <mxCell id="9xFqVU6_xqyPHwNH9stn-12" value="纯涉政词，本身就属于政治领域，不需要额外信息，例如：习近平" style="text;html=1;strokeColor=none;fillColor=none;align=center;verticalAlign=middle;whiteSpace=wrap;rounded=0;shadow=0;sketch=0;" vertex="1" parent="1">
          <mxGeometry x="580" y="400" width="160" height="68.75" as="geometry" />
        </mxCell>
      </root>
    </mxGraphModel>
  </diagram>
</mxfile>
